<svg width="461" height="368" viewBox="0 0 461 368" fill="none" xmlns="http://www.w3.org/2000/svg">
<path d="M460.269 326.036H0V326.266H460.269V326.036Z" fill="#A28035"/>
<path d="M395.564 332.305H305.719V332.535H395.564V332.305Z" fill="#A28035"/>
<path d="M308.996 337.625H266.035V337.855H308.996V337.625Z" fill="#A28035"/>
<path d="M414.15 340.847H396.485V341.077H414.15V340.847Z" fill="#A28035"/>
<path d="M201.598 337.736H116.421V337.966H201.598V337.736Z" fill="#A28035"/>
<path d="M108.227 337.736H89.9084V337.966H108.227V337.736Z" fill="#A28035"/>
<path d="M83.446 333.852H53.1972V334.082H83.446V333.852Z" fill="#A28035"/>
<path d="M218.167 284.98H40.4208C39.0283 284.977 37.6938 284.422 36.71 283.437C35.7263 282.452 35.1737 281.116 35.1737 279.724V29.8621C35.1859 28.4776 35.7437 27.1539 36.7262 26.1783C37.7086 25.2028 39.0363 24.6542 40.4208 24.6519H218.167C219.561 24.6519 220.898 25.2056 221.884 26.1914C222.87 27.1771 223.424 28.5141 223.424 29.9081V279.724C223.424 281.118 222.87 282.455 221.884 283.44C220.898 284.426 219.561 284.98 218.167 284.98ZM40.4208 24.836C39.0894 24.8384 37.8133 25.369 36.8727 26.3113C35.9321 27.2537 35.4039 28.5307 35.4039 29.8621V279.724C35.4039 281.055 35.9321 282.332 36.8727 283.274C37.8133 284.217 39.0894 284.747 40.4208 284.75H218.167C219.5 284.747 220.777 284.217 221.719 283.275C222.661 282.333 223.191 281.056 223.193 279.724V29.8621C223.191 28.5298 222.661 27.2528 221.719 26.3108C220.777 25.3687 219.5 24.8384 218.167 24.836H40.4208Z" fill="#A28035"/>
<path d="M417.289 284.98H239.533C238.14 284.977 236.804 284.423 235.819 283.438C234.834 282.452 234.279 281.117 234.277 279.724V29.8621C234.292 28.4768 234.851 27.153 235.835 26.1777C236.819 25.2024 238.148 24.6542 239.533 24.6519H417.289C418.672 24.6566 419.997 25.2062 420.978 26.1815C421.958 27.1568 422.515 28.4792 422.527 29.8621V279.724C422.527 281.114 421.976 282.449 420.994 283.434C420.012 284.419 418.68 284.975 417.289 284.98ZM239.533 24.836C238.201 24.8384 236.924 25.3687 235.982 26.3108C235.04 27.2528 234.51 28.5298 234.507 29.8621V279.724C234.51 281.056 235.04 282.333 235.982 283.275C236.924 284.217 238.201 284.747 239.533 284.75H417.289C418.621 284.747 419.898 284.217 420.84 283.275C421.782 282.333 422.313 281.056 422.315 279.724V29.8621C422.313 28.5298 421.782 27.2528 420.84 26.3108C419.898 25.3687 418.621 24.8384 417.289 24.836H239.533Z" fill="#A28035"/>
<path d="M427.818 318.819H264.579V326.036H427.818V318.819Z" fill="#A28035"/>
<path d="M427.819 326.027H434.032V318.81H427.819V326.027Z" fill="#C7C7C7"/>
<path d="M423.218 318.819H429.432V313.913H423.218V318.819Z" fill="#C7C7C7"/>
<path d="M423.216 313.903H269.182V318.81H423.216V313.903Z" fill="#A28035"/>
<path d="M407.798 204.157H284.603V313.904H407.798V204.157Z" fill="#E3E3E3"/>
<path d="M407.799 313.903H416.848V204.157H407.799V313.903Z" fill="#C7C7C7"/>
<path d="M412.906 194.648H279.483V204.157H412.906V194.648Z" fill="#E3E3E3"/>
<path d="M412.906 204.157H419.607V194.648H412.906V204.157Z" fill="#C7C7C7"/>
<path d="M370.847 20.795V194.648H329.267V20.795C329.267 15.2799 331.457 9.99061 335.357 6.0908C339.257 2.19099 344.546 0.000103001 350.062 0.000103001C351.356 -0.00408168 352.648 0.119253 353.919 0.368319C358.678 1.26716 362.975 3.80012 366.066 7.52967C369.156 11.2592 370.848 15.9512 370.847 20.795Z" fill="#E3E3E3"/>
<path d="M365.021 6.36122V194.648H353.919V0.414551C358.148 1.19229 362.03 3.27125 365.021 6.36122Z" fill="#F0F0F0"/>
<path d="M407.798 204.157H284.603V206.514H407.798V204.157Z" fill="#C7C7C7"/>
<path d="M390.003 232.39H302.396V313.912H390.003V232.39Z" fill="#C7C7C7"/>
<path d="M309.964 299.257L382.428 295.391V307.027L309.964 310.893V299.257Z" fill="#A0A0A0"/>
<path d="M377.116 293.016L315.284 289.15V300.795L377.116 304.652V293.016Z" fill="#A0A0A0"/>
<path d="M346.233 298.972C329.341 298.972 322.667 284.465 328.742 272.323C334.818 260.181 332.333 256.895 332.333 256.895C332.333 256.895 339.881 263.431 339.881 268.291C345.818 262.703 331.081 250.699 337.184 238.677C341.722 246.695 344.741 250.709 358.43 262.482C371.308 273.538 379.262 298.972 346.233 298.972Z" fill="#ECECEC"/>
<path opacity="0.5" d="M349.592 297.131C358.797 297.131 363.087 288.589 358.732 281.97C354.378 275.351 356.523 273.243 356.523 273.243C356.523 273.243 351.92 277.128 352.326 279.779C348.643 276.732 353.826 269.276 349.481 262.722C347.686 267.085 348.137 270.16 341.721 276.613C334.973 283.369 331.586 297.131 349.592 297.131Z" fill="#F0F0F0"/>
<path opacity="0.5" d="M347.826 294.544C343.72 294.544 341.806 290.733 343.748 287.787C345.69 284.842 344.733 283.893 344.733 283.893C344.733 283.893 346.795 285.624 346.574 286.802C348.222 285.449 345.902 282.117 347.835 279.199C348.636 281.15 348.443 282.513 351.296 285.394C354.343 288.423 355.853 294.544 347.826 294.544Z" fill="#A0A0A0"/>
<path d="M126.259 210.49H51.6493V326.027H126.259V210.49Z" fill="#F0F0F0"/>
<path d="M60.0585 317.033L60.0585 219.493H58.7605L58.7605 317.033H60.0585Z" fill="#A0A0A0"/>
<path d="M117.975 219.493H58.757V221.132H117.975V219.493Z" fill="#A0A0A0"/>
<path d="M202.168 210.49H127.559V326.027H202.168V210.49Z" fill="#F0F0F0"/>
<path d="M202.178 326.036H209.616V210.5H202.178V326.036Z" fill="#C7C7C7"/>
<path d="M135.962 317.033V219.493H134.664V317.033H135.962Z" fill="#A0A0A0"/>
<path d="M127.559 326.036V211.807H126.261V326.036H127.559Z" fill="#A0A0A0"/>
<path d="M193.884 219.493H134.666V221.132H193.884V219.493Z" fill="#A0A0A0"/>
<path d="M123.795 236.054H121.006V261.58H123.795V236.054Z" fill="#C7C7C7"/>
<path d="M132.815 236.054H130.025V261.58H132.815V236.054Z" fill="#C7C7C7"/>
<path d="M197.032 52.397H64.235V185.194H197.032V52.397Z" fill="#ECECEC"/>
<path d="M74.7563 185.194L121.814 52.397H157.126L110.068 185.194H74.7563Z" fill="white"/>
<path d="M117.524 185.194L164.572 52.397H177.451L130.402 185.194H117.524Z" fill="white"/>
<path d="M205.851 47.8315H55.417C55.1989 47.8315 54.9895 47.9175 54.8344 48.0709C54.6793 48.2243 54.591 48.4327 54.5885 48.6508C54.591 48.8689 54.6793 49.0773 54.8344 49.2307C54.9895 49.3841 55.1989 49.4701 55.417 49.4701H205.851C206.068 49.4701 206.277 49.3838 206.431 49.2301C206.584 49.0765 206.67 48.8681 206.67 48.6508C206.67 48.4335 206.584 48.2251 206.431 48.0715C206.277 47.9179 206.068 47.8315 205.851 47.8315Z" fill="#C7C7C7"/>
<path d="M129.538 185.479H131.729L131.729 52.1116H129.538L129.538 185.479Z" fill="#F0F0F0"/>
<path d="M131.729 185.479H132.824L132.824 52.1116H131.729L131.729 185.479Z" fill="#C7C7C7"/>
<path d="M62.9555 117.7V119.891L198.311 119.891V117.7L62.9555 117.7Z" fill="#F0F0F0"/>
<path d="M198.312 184.283V51.1177H62.9934V184.283V186.473H198.312V184.283ZM65.1475 184.283V53.3086H196.121V184.283H65.1475Z" fill="#F0F0F0"/>
<path d="M198.31 186.474H199.406L199.406 51.1179H198.31L198.31 186.474Z" fill="#C7C7C7"/>
<path opacity="0.5" d="M171.119 45.8149V190.763H210.711L203.448 45.8149H171.119Z" fill="#A28035"/>
<path opacity="0.5" d="M91.2416 45.8149V190.763H51.6493L58.9124 45.8149H91.2416Z" fill="#A28035"/>
<path d="M286.01 73.376H249.391V109.995H286.01V73.376Z" fill="#A28035"/>
<path d="M286.012 109.995H289.262V73.3761H286.012V109.995Z" fill="#C7C7C7"/>
<path d="M281.05 78.3379H254.354V105.033H281.05V78.3379Z" fill="white"/>
<path d="M277.773 81.6147H257.632V101.756H277.773V81.6147Z" fill="#E3E3E3"/>
<path d="M302.7 118.179H266.081V154.798H302.7V118.179Z" fill="#A28035"/>
<path d="M302.692 154.789H305.941V118.17H302.692V154.789Z" fill="#C7C7C7"/>
<path d="M297.74 123.141H271.044V149.836H297.74V123.141Z" fill="white"/>
<path d="M287.743 126.417H281.042C277.33 126.417 274.322 129.426 274.322 133.137V139.839C274.322 143.55 277.33 146.559 281.042 146.559H287.743C291.454 146.559 294.463 143.55 294.463 139.839V133.137C294.463 129.426 291.454 126.417 287.743 126.417Z" fill="#E3E3E3"/>
<path d="M230.135 367.608C328.708 367.608 408.618 362.942 408.618 357.187C408.618 351.432 328.708 346.767 230.135 346.767C131.562 346.767 51.652 351.432 51.652 357.187C51.652 362.942 131.562 367.608 230.135 367.608Z" fill="#E3E3E3"/>
<path d="M71.1875 240.877H70.267V253.249H71.1875V240.877Z" fill="#FEBE2D"/>
<path d="M71.1875 256.932H70.267V262.05H71.1875V256.932Z" fill="#FEBE2D"/>
<path d="M73.4882 195.661H224.024V357.188H77.7963C76.6562 357.188 75.5627 356.735 74.7565 355.929C73.9503 355.122 73.4974 354.029 73.4974 352.889V195.661H73.4882Z" fill="#FEBE2D"/>
<path opacity="0.2" d="M224.024 195.661H73.4882V207.113H160.102L162.974 357.188L164.98 207.113H224.024V195.661Z" fill="black"/>
<path d="M72.1897 171.11H224.023V203.845H72.1897C71.6209 203.845 71.0753 203.619 70.6731 203.216C70.2708 202.814 70.0449 202.269 70.0449 201.7V173.264C70.0436 172.982 70.0982 172.702 70.2055 172.441C70.3127 172.179 70.4705 171.942 70.6698 171.742C70.8691 171.542 71.1059 171.383 71.3668 171.274C71.6276 171.166 71.9073 171.11 72.1897 171.11Z" fill="#FEBE2D"/>
<path d="M131.455 357.188L129.881 171.11H162.615L164.18 357.188H131.455Z" fill="#263238"/>
<path d="M283.353 357.188H224.061L224.061 195.661H287.624L287.624 352.889C287.624 354.024 287.175 355.113 286.375 355.919C285.574 356.724 284.488 357.18 283.353 357.188Z" fill="#FEBE2D"/>
<path opacity="0.2" d="M283.353 357.188H224.061L224.061 195.661H287.624L287.624 352.889C287.624 354.024 287.175 355.113 286.375 355.919C285.574 356.724 284.488 357.18 283.353 357.188Z" fill="black"/>
<path opacity="0.2" d="M224.023 195.661H287.614V207.113H252.127L247.304 357.188L247.828 207.113H224.023V195.661Z" fill="black"/>
<path d="M288.922 203.844L224.025 203.844V171.11H288.922C289.204 171.11 289.483 171.165 289.743 171.273C290.003 171.381 290.24 171.539 290.439 171.738C290.638 171.937 290.796 172.174 290.904 172.434C291.012 172.694 291.067 172.973 291.067 173.255V201.69C291.068 201.973 291.014 202.253 290.907 202.514C290.799 202.775 290.642 203.013 290.442 203.213C290.243 203.413 290.006 203.572 289.745 203.68C289.485 203.788 289.205 203.844 288.922 203.844Z" fill="#FEBE2D"/>
<path opacity="0.2" d="M288.922 203.844L224.025 203.844V171.11H288.922C289.204 171.11 289.483 171.165 289.743 171.273C290.003 171.381 290.24 171.539 290.439 171.738C290.638 171.937 290.796 172.174 290.904 172.434C291.012 172.694 291.067 172.973 291.067 173.255V201.69C291.068 201.973 291.014 202.253 290.907 202.514C290.799 202.775 290.642 203.013 290.442 203.213C290.243 203.413 290.006 203.572 289.745 203.68C289.485 203.788 289.205 203.844 288.922 203.844Z" fill="black"/>
<path d="M247.305 357.188L250.048 171.11H270.475L267.731 357.188H247.305Z" fill="#263238"/>
<path opacity="0.2" d="M247.305 357.188L250.048 171.11H270.475L267.731 357.188H247.305Z" fill="black"/>
<path d="M257.963 109.342V109.296H231.185C229.643 109.424 228.139 109.836 226.748 110.511C199.592 121.889 186.391 151.705 180.555 171.073H207.95C207.95 171.073 272.784 107.501 257.963 109.342Z" fill="#263238"/>
<path opacity="0.5" d="M207.95 171.11C207.95 145.952 226.987 121.926 254.143 110.548C281.299 99.17 207.95 171.11 207.95 171.11Z" fill="black"/>
<path d="M264.96 125.277H245.086C243.817 125.386 242.574 125.697 241.404 126.197C217.985 134.648 199.639 156.787 189.743 171.166H210.087C210.087 171.166 276.494 123.896 264.96 125.277Z" fill="#263238"/>
<path opacity="0.5" d="M210.123 171.11C219.706 146.256 238.365 134.592 261.784 126.142C285.202 117.691 210.123 171.11 210.123 171.11Z" fill="black"/>
<path d="M131.13 101.49V101.435H104.287C103.795 101.425 103.309 101.547 102.881 101.788C102.452 102.03 102.095 102.381 101.847 102.806C93.4705 115.629 129.464 149.256 155.634 171.101H183.03C183.03 171.101 142.894 99.4002 131.13 101.49Z" fill="#263238"/>
<path opacity="0.5" d="M183.031 171.11C156.897 149.265 120.867 115.638 129.244 102.815C137.621 89.9919 183.031 171.11 183.031 171.11Z" fill="black"/>
<path d="M159.117 119.468H139.197C138.795 119.478 138.4 119.573 138.038 119.748C137.676 119.923 137.355 120.172 137.098 120.481C128.224 130.008 147.997 154.982 162.873 171.193H183.189C183.189 171.193 168.276 117.866 159.117 119.468Z" fill="#263238"/>
<path opacity="0.5" d="M183.189 171.11C168.314 154.89 148.531 129.925 157.414 120.398C166.298 110.87 183.189 171.11 183.189 171.11Z" fill="black"/>
<path d="M353.968 343.701L361 341.428L357.613 324.545L350.58 326.809L353.968 343.701Z" fill="#FF8B7B"/>
<path d="M298.192 349.638H305.575L307.545 332.525H300.153L298.192 349.638Z" fill="#FF8B7B"/>
<path d="M306.284 348.782H297.272C297.127 348.782 296.987 348.832 296.876 348.925C296.765 349.018 296.69 349.146 296.664 349.288L295.495 355.861C295.47 356.024 295.48 356.19 295.525 356.348C295.571 356.506 295.65 356.653 295.758 356.777C295.866 356.902 295.999 357.001 296.149 357.069C296.3 357.136 296.463 357.17 296.627 357.168C299.527 357.122 301.635 356.947 305.289 356.947C307.536 356.947 314.311 357.187 317.413 357.187C320.515 357.187 320.791 354.121 319.512 353.836C313.768 352.593 309.386 350.881 307.545 349.233C307.196 348.93 306.746 348.769 306.284 348.782Z" fill="#263238"/>
<path d="M360.688 340.636L353.001 343.158C352.862 343.203 352.743 343.294 352.663 343.416C352.582 343.538 352.546 343.684 352.559 343.83L353.185 350.531C353.2 350.693 353.252 350.85 353.336 350.989C353.42 351.128 353.535 351.246 353.671 351.335C353.808 351.423 353.962 351.48 354.124 351.5C354.285 351.521 354.449 351.504 354.603 351.452C357.364 350.531 361.314 349.058 364.793 347.935C368.862 346.619 371.283 345.956 376.051 344.41C378.942 343.489 378.813 340.304 377.506 340.433C371.614 341.004 368.3 342.081 362.556 340.682C361.951 340.487 361.302 340.471 360.688 340.636Z" fill="#263238"/>
<path d="M323.646 125.433C324.567 127.504 325.598 129.741 326.629 131.876C327.66 134.012 328.709 136.175 329.814 138.274C330.919 140.373 332.005 142.481 333.183 144.497C334.361 146.513 335.558 148.501 336.819 150.407C337.464 151.327 338.09 152.248 338.771 153.113L339.774 154.393C339.959 154.646 340.166 154.883 340.391 155.102C340.713 155.441 341.106 155.705 341.542 155.875C342.135 156.068 342.764 156.124 343.383 156.04C345.267 155.704 347.07 155.01 348.694 153.997C349.615 153.463 350.535 152.846 351.456 152.202C352.376 151.557 353.297 150.812 354.144 150.177L358.415 153.702C357.686 154.857 356.88 155.961 356.003 157.007C355.131 158.062 354.187 159.056 353.177 159.98C352.125 160.966 350.985 161.854 349.771 162.632C348.436 163.509 346.987 164.196 345.463 164.675C343.682 165.251 341.796 165.424 339.94 165.181C337.95 164.916 336.054 164.171 334.417 163.009C333.665 162.474 332.963 161.873 332.318 161.214L330.928 159.686C330.007 158.673 329.188 157.624 328.332 156.584C325.223 152.447 322.423 148.087 319.955 143.54C318.731 141.303 317.562 139.057 316.475 136.764C315.389 134.472 314.331 132.226 313.336 129.768L323.646 125.433Z" fill="#FF8B7B"/>
<path d="M310.122 126.095C308.805 133.027 317.421 142.941 317.421 142.941L330.079 137.491C330.079 137.491 328.762 129.547 323.709 123.812C317.513 116.788 311.567 118.546 310.122 126.095Z" fill="#FEBE2D"/>
<path opacity="0.2" d="M316.961 128.544C313.509 127.311 310.96 127.716 310.039 128.544C310.665 135.135 317.403 142.905 317.403 142.905L326.369 139.048C325.707 135.982 322.365 130.514 316.961 128.544Z" fill="black"/>
<path d="M353.075 151.732L357.116 143.217L362.787 149.145C362.787 149.145 361.176 155.939 355.864 155.073L353.075 151.732Z" fill="#FF8B7B"/>
<path d="M360.355 139.213L364.746 144.653L362.786 149.145L357.115 143.217L360.355 139.213Z" fill="#FF8B7B"/>
<path opacity="0.2" d="M357.613 324.545L359.362 333.253L352.32 335.518L350.58 326.819L357.613 324.545Z" fill="black"/>
<path opacity="0.2" d="M300.153 332.535H307.544L306.532 341.354H299.131L300.153 332.535Z" fill="black"/>
<path d="M276.965 126.196C287.616 153.361 288.932 183.168 290.221 189.096L329.169 182.34C330.089 145.629 320.884 125.34 318.417 120.581C318.24 120.24 317.977 119.951 317.654 119.743C317.331 119.534 316.96 119.414 316.576 119.393C315.49 119.32 313.814 119.237 311.752 119.228C310.666 119.228 309.497 119.228 308.282 119.292C307.61 119.292 306.929 119.366 306.248 119.412C300.674 120.055 295.141 121.017 289.678 122.293C288.647 122.523 287.597 122.781 286.585 123.048C285.572 123.315 284.744 123.572 283.823 123.839C279.975 124.99 276.965 126.196 276.965 126.196Z" fill="#FEBE2D"/>
<path opacity="0.2" d="M280.767 137.123C282.056 141.376 283.161 145.611 284.091 149.716C285.315 142.288 285.858 134.656 285.858 134.656L280.767 137.123Z" fill="black"/>
<path d="M288.213 103.478C290.174 108.623 292.917 118.206 289.806 122.404C293.193 124.779 297.557 127.448 303.918 126.574C310.279 125.699 308.428 121.538 306.357 119.532C300.171 119.145 299.564 114.708 299.913 110.391L288.213 103.478Z" fill="#FF8B7B"/>
<path d="M308.06 128.332C308.06 128.332 312.985 123.877 307.591 119.228C306.887 119.183 306.18 119.258 305.501 119.449C305.501 119.449 311.549 124.622 304.663 126.445C299.414 126.118 294.314 124.571 289.769 121.925C289.219 122.047 288.694 122.258 288.213 122.551C290.11 126.353 302.997 129.336 302.997 129.336C303.118 128.735 303.326 128.155 303.614 127.614C304.88 131.169 305.859 134.82 306.541 138.532C307.41 138.402 308.269 138.208 309.109 137.952C308.395 134.288 307.473 130.667 306.348 127.108C306.981 127.421 307.559 127.834 308.06 128.332Z" fill="white"/>
<path opacity="0.2" d="M292.962 106.304L299.866 110.391C299.783 111.399 299.783 112.412 299.866 113.419C297.546 113.484 293.993 111.532 293.339 109.194C293.043 108.261 292.916 107.282 292.962 106.304Z" fill="black"/>
<path d="M302.004 96.2238C307.416 94.1618 306.855 80.3169 298.524 82.3605C292.89 83.7413 293.47 85.4443 294.501 89.062C295.532 92.6797 298.579 97.5309 302.004 96.2238Z" fill="#263238"/>
<path d="M286.189 95.5799C287.882 102.714 288.508 106.976 292.798 110.042C299.242 114.644 307.527 109.811 308.042 102.318C308.466 95.5707 305.621 85.0305 298.064 83.392C296.399 83.0204 294.667 83.0809 293.033 83.5676C291.398 84.0542 289.915 84.951 288.725 86.1725C287.535 87.394 286.677 88.8996 286.233 90.5462C285.789 92.1928 285.774 93.9257 286.189 95.5799Z" fill="#FF8B7B"/>
<path d="M287.21 100.753C292.623 98.691 290.542 85.1038 282.212 87.175C276.578 88.5559 277.554 91.7777 279.137 94.9444C280.84 98.2951 283.813 102.06 287.21 100.753Z" fill="#263238"/>
<path d="M299.583 76.7453C298.175 73.146 290.838 70.55 289.503 77.5461C283.336 77.1319 268.644 89.0713 286.088 89.0252C294.714 91.1977 307.491 86.4477 307.684 81.4492C307.877 76.4507 301.701 74.6464 299.583 76.7453Z" fill="#263238"/>
<path d="M284.358 102.474C285.287 103.889 286.735 104.881 288.39 105.236C290.544 105.659 291.372 103.625 290.562 101.618C289.835 99.7772 287.8 97.4298 285.775 97.9361C283.75 98.4424 283.198 100.725 284.358 102.474Z" fill="#FF8B7B"/>
<path d="M361.47 330.776L349.558 334.615C349.558 334.615 337.711 291.69 333.237 269.11C331.865 262.233 328.073 253.461 324.713 243.335C320.469 230.604 315.369 216.897 311.254 206.173C306.909 194.878 303.706 186.768 303.706 186.768L329.177 182.34C329.177 182.34 351.132 241.816 354.188 264.157C357.364 287.392 361.47 330.776 361.47 330.776Z" fill="#263238"/>
<path opacity="0.2" d="M324.702 243.335C320.459 230.604 315.359 216.897 311.244 206.173L313.324 200.134C320.495 207.075 324.629 230.429 324.702 243.335Z" fill="black"/>
<path d="M317.037 184.448C317.037 184.448 319.108 248.076 318.187 269.699C317.175 293.394 309.949 339.66 309.949 339.66H296.417C296.417 339.66 299.436 297.711 299.178 274.596C298.856 248.269 290.267 189.115 290.267 189.115L317.037 184.448Z" fill="#263238"/>
<path d="M311.569 339.935H295.625V335.176L313.447 334.863L311.569 339.935Z" fill="#FEBE2D"/>
<path d="M363.052 330.574L348.867 335.149L347.385 330.565L363.172 325.207L363.052 330.574Z" fill="#FEBE2D"/>
<path d="M297.475 95.6902C297.576 96.2794 297.972 96.7028 298.395 96.6108C298.819 96.5187 299.003 96.0124 298.901 95.4233C298.8 94.8341 298.404 94.4199 297.981 94.5027C297.557 94.5856 297.336 95.1103 297.475 95.6902Z" fill="#263238"/>
<path d="M304.112 94.5389C304.213 95.1281 304.609 95.5515 305.032 95.4595C305.456 95.3674 305.64 94.8611 305.539 94.272C305.437 93.6829 305.042 93.2594 304.664 93.3515C304.287 93.4435 304.011 93.9498 304.112 94.5389Z" fill="#263238"/>
<path d="M302.048 95.2021C303.06 96.8752 304.299 98.3995 305.73 99.7312C305.379 100.088 304.954 100.364 304.485 100.54C304.016 100.717 303.514 100.789 303.015 100.753L302.048 95.2021Z" fill="#FF5652"/>
<path d="M300.815 102.751C300.141 102.789 299.467 102.689 298.833 102.456C298.2 102.224 297.621 101.863 297.133 101.397C297.116 101.381 297.103 101.362 297.094 101.34C297.086 101.319 297.081 101.296 297.081 101.273C297.081 101.25 297.086 101.227 297.094 101.206C297.103 101.184 297.116 101.165 297.133 101.149C297.167 101.118 297.211 101.101 297.257 101.101C297.303 101.101 297.347 101.118 297.381 101.149C297.926 101.651 298.582 102.018 299.295 102.22C300.009 102.421 300.76 102.452 301.487 102.309C301.533 102.303 301.58 102.315 301.617 102.343C301.655 102.37 301.681 102.41 301.689 102.456C301.698 102.501 301.688 102.548 301.662 102.586C301.636 102.623 301.596 102.65 301.551 102.659C301.308 102.704 301.062 102.735 300.815 102.751Z" fill="#263238"/>
<path d="M295.054 93.9044C295 93.9173 294.943 93.9173 294.889 93.9044C294.807 93.8612 294.746 93.7883 294.717 93.7009C294.687 93.6135 294.693 93.5183 294.732 93.4349C294.976 92.9233 295.341 92.4785 295.795 92.1386C296.248 91.7987 296.778 91.5739 297.337 91.4834C297.43 91.4736 297.523 91.5011 297.595 91.5598C297.668 91.6185 297.714 91.7036 297.724 91.7964C297.734 91.8891 297.706 91.982 297.647 92.0545C297.589 92.127 297.504 92.1732 297.411 92.183C296.979 92.26 296.572 92.4388 296.223 92.7045C295.874 92.9703 295.593 93.3153 295.404 93.7111C295.374 93.7761 295.323 93.8297 295.261 93.8644C295.198 93.8992 295.126 93.9131 295.054 93.9044Z" fill="#263238"/>
<path d="M306.543 91.7593C306.485 91.7626 306.427 91.7517 306.375 91.7277C306.322 91.7036 306.275 91.6671 306.24 91.6212C305.995 91.2561 305.667 90.9546 305.283 90.7416C304.899 90.5287 304.469 90.4105 304.03 90.3969C303.937 90.3994 303.846 90.3652 303.777 90.3015C303.708 90.2379 303.667 90.1499 303.662 90.0563C303.66 89.965 303.693 89.8764 303.755 89.8093C303.817 89.7423 303.902 89.702 303.994 89.6973C304.55 89.7048 305.096 89.8458 305.586 90.1086C306.076 90.3713 306.496 90.748 306.81 91.2069C306.865 91.2815 306.888 91.3747 306.874 91.4661C306.86 91.5575 306.811 91.6397 306.737 91.6948C306.681 91.7367 306.613 91.7593 306.543 91.7593Z" fill="#263238"/>
<path d="M308.777 350.08C308.122 350.061 307.471 349.972 306.835 349.813C306.8 349.805 306.769 349.786 306.744 349.76C306.719 349.734 306.703 349.701 306.697 349.666C306.69 349.633 306.693 349.598 306.706 349.567C306.719 349.535 306.742 349.509 306.771 349.491C307.028 349.325 309.357 347.861 310.186 348.276C310.279 348.322 310.358 348.393 310.415 348.48C310.472 348.567 310.504 348.669 310.508 348.773C310.536 348.941 310.521 349.113 310.465 349.274C310.409 349.435 310.313 349.579 310.186 349.693C309.774 349.979 309.277 350.115 308.777 350.08ZM307.332 349.564C308.593 349.813 309.56 349.767 309.946 349.426C310.035 349.351 310.101 349.253 310.139 349.143C310.176 349.032 310.183 348.914 310.158 348.8C310.161 348.757 310.151 348.714 310.13 348.677C310.109 348.639 310.077 348.608 310.038 348.589C309.606 348.368 308.28 349.003 307.332 349.601V349.564Z" fill="#FEBE2D"/>
<path d="M306.873 349.813C306.842 349.821 306.811 349.821 306.781 349.813C306.753 349.798 306.731 349.775 306.716 349.747C306.702 349.719 306.695 349.688 306.698 349.657C306.698 349.565 306.79 347.429 307.618 346.729C307.718 346.642 307.835 346.576 307.962 346.538C308.089 346.5 308.223 346.49 308.355 346.508C308.487 346.507 308.616 346.551 308.72 346.633C308.823 346.715 308.896 346.83 308.925 346.959C309.119 347.788 307.71 349.408 306.955 349.822L306.873 349.813ZM308.244 346.821C308.171 346.82 308.099 346.833 308.031 346.86C307.963 346.887 307.901 346.927 307.848 346.978C307.354 347.648 307.083 348.456 307.075 349.288C307.811 348.709 308.704 347.447 308.585 347.006C308.585 346.959 308.585 346.849 308.327 346.821H308.244Z" fill="#FEBE2D"/>
<path d="M361.691 341.381C361.658 341.382 361.625 341.373 361.598 341.355C361.57 341.337 361.548 341.311 361.535 341.28C361.515 341.252 361.504 341.218 361.504 341.183C361.504 341.149 361.515 341.115 361.535 341.087C361.802 340.81 364.168 338.472 365.217 338.666C365.312 338.686 365.4 338.73 365.474 338.792C365.548 338.855 365.605 338.935 365.641 339.025C365.706 339.171 365.736 339.331 365.726 339.492C365.716 339.652 365.668 339.808 365.585 339.945C365.033 340.866 362.925 341.252 361.728 341.39L361.691 341.381ZM365.07 339.006C364.481 339.006 363.137 340.074 362.198 340.967C363.827 340.718 364.959 340.277 365.272 339.761C365.322 339.668 365.348 339.563 365.348 339.457C365.348 339.351 365.322 339.247 365.272 339.154C365.263 339.117 365.243 339.085 365.216 339.06C365.188 339.036 365.153 339.02 365.116 339.015L365.07 339.006Z" fill="#FEBE2D"/>
<path d="M361.69 341.381H361.644C361.613 341.374 361.585 341.358 361.564 341.335C361.543 341.312 361.529 341.283 361.524 341.252C361.524 341.17 361.082 339.218 361.736 338.196C361.828 338.046 361.95 337.917 362.094 337.816C362.238 337.714 362.401 337.643 362.573 337.607C363.043 337.506 363.254 337.699 363.337 337.874C363.724 338.629 362.536 340.691 361.809 341.344C361.775 341.37 361.732 341.383 361.69 341.381ZM362.822 337.92H362.647C362.519 337.945 362.399 337.996 362.292 338.07C362.186 338.145 362.097 338.241 362.03 338.353C361.702 339.132 361.625 339.994 361.809 340.82C362.5 340.019 363.264 338.454 363.034 338.003C363.01 337.97 362.977 337.945 362.94 337.931C362.902 337.916 362.861 337.912 362.822 337.92Z" fill="#FEBE2D"/>
<path d="M285.958 135.356C285.038 137.473 284.117 139.756 283.197 141.993C282.276 144.23 281.429 146.485 280.61 148.75C279.791 151.014 278.981 153.26 278.281 155.525C277.582 157.79 276.919 160.045 276.385 162.273C276.136 163.386 275.869 164.5 275.704 165.586L275.556 166.406V166.608V166.553C275.556 166.507 275.556 166.433 275.556 166.369C275.514 166.093 275.389 165.836 275.197 165.632C274.921 165.458 275.326 165.982 276.044 166.332C276.901 166.771 277.794 167.134 278.714 167.418C283.242 168.616 287.86 169.444 292.522 169.895L292.816 175.418C290.236 175.906 287.624 176.214 285.001 176.338C282.285 176.496 279.56 176.394 276.864 176.035C275.341 175.836 273.844 175.475 272.399 174.958C271.53 174.644 270.695 174.247 269.904 173.77C268.872 173.151 267.964 172.345 267.225 171.395C266.294 170.179 265.715 168.73 265.55 167.207C265.527 166.836 265.527 166.464 265.55 166.093V165.568V165.31L265.651 164.279C265.762 162.889 265.974 161.564 266.176 160.22C267.112 155.069 268.429 149.995 270.116 145.04C270.954 142.601 271.81 140.189 272.776 137.805C273.743 135.42 274.682 133.101 275.833 130.68L285.958 135.356Z" fill="#FF8B7B"/>
<path d="M276.964 126.197C273.135 128.268 270.475 140.714 270.475 140.714L281.797 147.673C281.797 147.673 284.734 141.92 286.888 137.188C291.012 128.139 284.494 122.128 276.964 126.197Z" fill="#FEBE2D"/>
<path d="M291.508 169.775L298.955 169.453L295.65 176.541C295.65 176.541 288.636 176.117 289.565 172.757L291.508 169.775Z" fill="#FF8B7B"/>
<path d="M303.861 174.331L300.151 178.953L295.659 176.504L298.955 169.443L303.861 174.331Z" fill="#FF8B7B"/>
</svg>
