<svg width="483" height="360" viewBox="0 0 483 360" fill="none" xmlns="http://www.w3.org/2000/svg">
<path d="M482.133 315.7H0V315.942H482.133V315.7Z" fill="#768BD3"/>
<path d="M433.823 331.215H401.886V331.456H433.823V331.215Z" fill="#768BD3"/>
<path d="M319.383 333.838H311.004V334.079H319.383V333.838Z" fill="#768BD3"/>
<path d="M400.921 322.267H382.417V322.508H400.921V322.267Z" fill="#768BD3"/>
<path d="M92.2321 323.887H50.5855V324.128H92.2321V323.887Z" fill="#768BD3"/>
<path d="M106.926 323.887H100.822V324.128H106.926V323.887Z" fill="#768BD3"/>
<path d="M217.105 327.956H126.772V328.197H217.105V327.956Z" fill="#768BD3"/>
<path d="M228.53 272.694H42.3398C40.8812 272.692 39.4833 272.11 38.4528 271.078C37.4223 270.046 36.8435 268.647 36.8435 267.188V5.45774C36.8562 4.00751 37.4406 2.62085 38.4697 1.59896C39.4988 0.577072 40.8896 0.00248432 42.3398 0H228.53C229.99 0 231.391 0.58009 232.423 1.61266C233.456 2.64522 234.036 4.04568 234.036 5.50595V267.188C234.036 268.648 233.456 270.049 232.423 271.082C231.391 272.114 229.99 272.694 228.53 272.694ZM42.3398 0.192854C40.9452 0.195408 39.6085 0.751225 38.6232 1.73831C37.638 2.72539 37.0846 4.06307 37.0846 5.45774V267.188C37.0846 268.583 37.638 269.921 38.6232 270.908C39.6085 271.895 40.9452 272.451 42.3398 272.453H228.53C229.925 272.451 231.263 271.895 232.25 270.908C233.237 269.921 233.792 268.584 233.795 267.188V5.45774C233.792 4.06219 233.237 2.72452 232.25 1.73772C231.263 0.750912 229.925 0.195403 228.53 0.192854H42.3398Z" fill="#768BD3"/>
<path d="M437.112 272.694H250.912C249.453 272.692 248.054 272.111 247.022 271.079C245.99 270.047 245.409 268.648 245.407 267.188V5.45774C245.422 4.00663 246.008 2.61998 247.039 1.59836C248.07 0.576735 249.461 0.00245723 250.912 0H437.112C438.561 0.00501851 439.949 0.580728 440.976 1.60235C442.003 2.62396 442.586 4.00918 442.599 5.45774V267.188C442.599 268.645 442.021 270.043 440.993 271.075C439.964 272.107 438.569 272.689 437.112 272.694ZM250.912 0.192854C249.517 0.195403 248.179 0.750912 247.192 1.73772C246.206 2.72452 245.65 4.06219 245.648 5.45774V267.188C245.65 268.584 246.206 269.921 247.192 270.908C248.179 271.895 249.517 272.451 250.912 272.453H437.112C438.508 272.451 439.845 271.895 440.832 270.908C441.819 269.921 442.374 268.584 442.377 267.188V5.45774C442.374 4.06219 441.819 2.72452 440.832 1.73772C439.845 0.750912 438.508 0.195403 437.112 0.192854H250.912Z" fill="#768BD3"/>
<path d="M425.095 42.5713C427.976 30.3651 420.416 18.1346 408.21 15.2537C396.004 12.3728 383.774 19.9324 380.893 32.1386C378.012 44.3447 385.571 56.5752 397.777 59.4561C409.984 62.337 422.214 54.7774 425.095 42.5713Z" fill="#A6A6A6"/>
<path d="M422.091 40.4593C423.8 29.9301 416.65 20.0091 406.121 18.3C395.592 16.5908 385.671 23.7409 383.962 34.27C382.253 44.7992 389.403 54.7202 399.932 56.4294C410.461 58.1385 420.382 50.9884 422.091 40.4593Z" fill="#F0F0F0"/>
<path d="M402.098 24.1064V37.6062L393.15 32.5438" fill="#F0F0F0"/>
<path d="M402.098 24.1064V37.6062L393.15 32.5438" stroke="#838383" stroke-width="2" stroke-linecap="round" stroke-linejoin="round"/>
<path d="M125.992 52.1282H59.8241V172.295H125.992V52.1282Z" fill="#CFCFCF"/>
<path d="M121.497 56.8916H64.6057V167.782H121.497V56.8916Z" fill="#F0F0F0"/>
<path d="M92.6754 56.8916L64.6057 162.016V105.105L77.4497 56.8916H92.6754Z" fill="white"/>
<path d="M105.22 56.8916L75.6175 167.782H70.0344L99.6373 56.8916H105.22Z" fill="white"/>
<path d="M123.908 134.409H61.713V138.266H123.908V134.409Z" fill="#CFCFCF"/>
<path d="M409.099 208.021C409.099 208.021 410.613 197.993 403.313 191.571C396.014 185.149 396.64 181.311 398.733 180.819C400.825 180.327 402.754 186.749 405.965 188.533C405.965 188.533 406.071 179.373 402.802 175.998C399.533 172.623 397.826 163.925 400.931 163.781C404.036 163.636 404.354 168.939 405.001 172.71C405.647 176.48 409.108 181.783 409.108 181.783C409.108 181.783 409.783 173.587 411.895 170.212C414.007 166.837 408.375 159.123 410.545 155.748C412.715 152.373 416.572 158.805 416.253 166.037C415.935 173.269 411.104 180.983 412.233 188.533C412.233 188.533 414.364 183.23 416.273 182.748C418.182 182.265 420.13 178.756 421.393 177.454C422.656 176.152 424.286 180.655 421.393 184.84C418.5 189.025 411.104 200.191 412.233 209.226L409.099 208.021Z" fill="#CFCFCF"/>
<path d="M404.72 203.46L402.329 218.483C402.154 219.574 402.219 220.69 402.517 221.754C402.816 222.817 403.342 223.803 404.059 224.644C404.776 225.485 405.667 226.16 406.67 226.623C407.673 227.086 408.764 227.325 409.869 227.326H412.425C413.53 227.327 414.623 227.088 415.627 226.626C416.631 226.163 417.523 225.488 418.241 224.648C418.959 223.807 419.486 222.82 419.785 221.756C420.085 220.692 420.149 219.575 419.975 218.483L417.583 203.46H404.72Z" fill="#CFCFCF"/>
<path d="M414.672 229.052H409.099V316.588H414.672V229.052Z" fill="#A6A6A6"/>
<path d="M394.885 229.052H389.311V316.588H394.885V229.052Z" fill="#CFCFCF"/>
<path d="M434.45 229.052H428.876V316.588H434.45V229.052Z" fill="#CFCFCF"/>
<path d="M437.758 223.459H386.005V232.774H437.758V223.459Z" fill="#CFCFCF"/>
<path d="M241.066 359.247C344.322 359.247 428.028 354.36 428.028 348.331C428.028 342.303 344.322 337.416 241.066 337.416C137.81 337.416 54.1049 342.303 54.1049 348.331C54.1049 354.36 137.81 359.247 241.066 359.247Z" fill="#E3E3E3"/>
<path d="M337.491 310.994V204.424H326.884V310.994L320.134 313.068V316.279H344.241V313.068L337.491 310.994Z" fill="#3D4448"/>
<path d="M202.494 204.424H191.887V310.994L185.138 313.068V316.279H209.244V313.068L202.494 310.994V204.424Z" fill="#3D4448"/>
<g opacity="0.2">
<path d="M337.491 216.959H326.884V310.995L320.135 313.068V316.279H344.241V313.068L337.491 310.995V216.959Z" fill="white"/>
<path d="M202.494 216.959H191.887V310.995L185.138 313.068V316.279H209.244V313.068L202.494 310.995V216.959Z" fill="white"/>
</g>
<path d="M370.274 208.281V36.6418L159.1 36.6418V208.281H370.274Z" fill="#3D4448"/>
<path opacity="0.2" d="M370.274 208.281V36.6418L159.1 36.6418V208.281H370.274Z" fill="white"/>
<path d="M365.578 41.4053H163.796V203.421H365.578V41.4053Z" fill="#4B9EFF"/>
<path opacity="0.3" d="M365.578 41.4053H163.796V203.421H365.578V41.4053Z" fill="white"/>
<path d="M186.581 55.927V99.8011H256.5L186.581 55.927Z" stroke="#263238" stroke-miterlimit="10"/>
<path d="M190.093 99.9169V96.3298H186.506" stroke="#263238" stroke-width="0.793303" stroke-miterlimit="10"/>
<path d="M223.681 71.7146C223.354 71.7146 223.037 71.6368 222.729 71.4813C222.424 71.3227 222.212 71.0895 222.091 70.7817L222.3 70.6293L222.139 71.6194H221.377V64.4797H222.234V67.8686L222.053 67.7354C222.212 67.4783 222.438 67.2689 222.734 67.1071C223.029 66.9421 223.344 66.8596 223.681 66.8596C224.116 66.8596 224.49 66.9738 224.804 67.2023C225.118 67.4276 225.359 67.7259 225.528 68.0971C225.699 68.4652 225.785 68.8619 225.785 69.2871C225.785 69.7408 225.691 70.1518 225.504 70.5199C225.317 70.8848 225.064 71.1751 224.747 71.3909C224.43 71.6067 224.074 71.7146 223.681 71.7146ZM223.576 70.953C223.849 70.953 224.085 70.8784 224.285 70.7293C224.485 70.577 224.639 70.3755 224.747 70.1248C224.855 69.8709 224.909 69.5917 224.909 69.2871C224.909 68.9698 224.855 68.6857 224.747 68.4351C224.639 68.1844 224.485 67.9861 224.285 67.8401C224.085 67.6941 223.849 67.6211 223.576 67.6211C223.332 67.6211 223.103 67.683 222.891 67.8068C222.681 67.9274 222.511 68.1114 222.381 68.3589C222.251 68.6032 222.186 68.9126 222.186 69.2871C222.186 69.6774 222.251 69.9947 222.381 70.239C222.511 70.4834 222.681 70.6642 222.891 70.7817C223.103 70.8959 223.332 70.953 223.576 70.953Z" fill="#263238"/>
<path d="M189.766 137.969C189.439 137.969 189.122 137.891 188.814 137.736C188.51 137.577 188.297 137.344 188.176 137.036L188.386 136.884L188.224 137.874H187.463V130.734H188.319V134.123L188.138 133.99C188.297 133.733 188.524 133.524 188.819 133.362C189.114 133.197 189.43 133.114 189.766 133.114C190.201 133.114 190.575 133.228 190.89 133.457C191.204 133.682 191.445 133.98 191.613 134.352C191.784 134.72 191.87 135.117 191.87 135.542C191.87 135.995 191.777 136.406 191.589 136.775C191.402 137.139 191.15 137.43 190.832 137.646C190.515 137.861 190.16 137.969 189.766 137.969ZM189.662 137.208C189.934 137.208 190.171 137.133 190.371 136.984C190.571 136.832 190.725 136.63 190.832 136.379C190.94 136.126 190.994 135.846 190.994 135.542C190.994 135.224 190.94 134.94 190.832 134.69C190.725 134.439 190.571 134.241 190.371 134.095C190.171 133.949 189.934 133.876 189.662 133.876C189.417 133.876 189.189 133.938 188.976 134.061C188.767 134.182 188.597 134.366 188.467 134.614C188.337 134.858 188.272 135.167 188.272 135.542C188.272 135.932 188.337 136.249 188.467 136.494C188.597 136.738 188.767 136.919 188.976 137.036C189.189 137.151 189.417 137.208 189.662 137.208Z" fill="#263238"/>
<path d="M213.905 108.675C213.378 108.675 212.935 108.569 212.577 108.356C212.221 108.14 211.952 107.852 211.768 107.49C211.587 107.125 211.496 106.72 211.496 106.276C211.496 105.813 211.584 105.396 211.758 105.024C211.936 104.653 212.207 104.359 212.572 104.144C212.937 103.928 213.403 103.82 213.971 103.82C214.216 103.82 214.446 103.845 214.662 103.896C214.881 103.944 215.076 104.01 215.247 104.096L215.114 104.848C214.939 104.766 214.754 104.701 214.557 104.653C214.363 104.605 214.162 104.582 213.952 104.582C213.438 104.582 213.046 104.728 212.777 105.019C212.507 105.311 212.372 105.718 212.372 106.238C212.372 106.746 212.501 107.153 212.758 107.461C213.015 107.769 213.407 107.923 213.933 107.923C214.149 107.923 214.355 107.898 214.552 107.847C214.752 107.796 214.942 107.726 215.123 107.637L215.238 108.323C215.111 108.412 214.925 108.493 214.681 108.566C214.436 108.639 214.178 108.675 213.905 108.675Z" fill="#263238"/>
<path d="M189.614 151.44C189.087 151.44 188.645 151.334 188.286 151.121C187.931 150.905 187.661 150.617 187.477 150.255C187.296 149.89 187.205 149.485 187.205 149.041C187.205 148.578 187.293 148.161 187.467 147.789C187.645 147.418 187.916 147.125 188.281 146.909C188.646 146.693 189.113 146.585 189.681 146.585C189.925 146.585 190.155 146.611 190.371 146.661C190.59 146.709 190.785 146.776 190.956 146.861L190.823 147.613C190.648 147.531 190.463 147.466 190.266 147.418C190.072 147.371 189.871 147.347 189.662 147.347C189.147 147.347 188.756 147.493 188.486 147.785C188.216 148.077 188.081 148.483 188.081 149.003C188.081 149.511 188.21 149.919 188.467 150.226C188.724 150.534 189.116 150.688 189.643 150.688C189.858 150.688 190.065 150.663 190.261 150.612C190.461 150.561 190.652 150.491 190.832 150.403L190.947 151.088C190.82 151.177 190.634 151.258 190.39 151.331C190.145 151.404 189.887 151.44 189.614 151.44Z" fill="#263238"/>
<path d="M180.478 82.1672C180.189 82.1672 179.937 82.1085 179.721 81.9911C179.505 81.8737 179.337 81.7134 179.216 81.5104C179.099 81.3073 179.04 81.0756 179.04 80.8154C179.04 80.5521 179.097 80.3268 179.212 80.1395C179.329 79.9491 179.485 79.7921 179.678 79.6683C179.875 79.5414 180.094 79.4414 180.335 79.3684C180.576 79.2923 180.825 79.2383 181.082 79.2066C181.342 79.1717 181.592 79.1527 181.83 79.1495C181.83 78.7052 181.742 78.4149 181.568 78.2784C181.393 78.142 181.141 78.0738 180.811 78.0738C180.636 78.0738 180.449 78.1007 180.249 78.1547C180.053 78.2086 179.83 78.3213 179.583 78.4926L179.459 77.7977C179.646 77.6549 179.88 77.5391 180.159 77.4502C180.438 77.3582 180.732 77.3122 181.039 77.3122C181.433 77.3122 181.75 77.382 181.991 77.5216C182.233 77.6581 182.409 77.8897 182.52 78.2166C182.631 78.5434 182.686 78.9877 182.686 79.5493V80.5013C182.686 80.7234 182.696 80.9075 182.715 81.0534C182.737 81.1962 182.785 81.3041 182.858 81.3771C182.934 81.4469 183.054 81.4818 183.219 81.4818H183.305L183.172 82.1672H183.105C182.829 82.1672 182.615 82.1402 182.463 82.0863C182.313 82.0324 182.199 81.9546 182.12 81.8531C182.041 81.7515 181.969 81.6278 181.906 81.4818C181.731 81.6849 181.525 81.8499 181.287 81.9768C181.049 82.1038 180.779 82.1672 180.478 82.1672ZM180.64 81.4818C180.868 81.4818 181.089 81.4247 181.301 81.3105C181.517 81.1962 181.693 81.0439 181.83 80.8535V79.7397C181.376 79.7556 181.008 79.8 180.725 79.873C180.446 79.946 180.241 80.0554 180.111 80.2014C179.981 80.3474 179.916 80.5362 179.916 80.7678C179.916 81.0185 179.983 81.201 180.116 81.3152C180.252 81.4263 180.427 81.4818 180.64 81.4818Z" fill="#263238"/>
<path d="M188.557 124.489C188.269 124.489 188.016 124.43 187.8 124.313C187.585 124.195 187.417 124.035 187.296 123.832C187.179 123.629 187.12 123.397 187.12 123.137C187.12 122.874 187.177 122.649 187.291 122.461C187.409 122.271 187.564 122.114 187.758 121.99C187.954 121.863 188.173 121.763 188.414 121.69C188.656 121.614 188.905 121.56 189.162 121.528C189.422 121.493 189.671 121.474 189.909 121.471C189.909 121.027 189.822 120.737 189.647 120.6C189.473 120.464 189.22 120.396 188.89 120.396C188.716 120.396 188.529 120.423 188.329 120.476C188.132 120.53 187.91 120.643 187.662 120.814L187.539 120.119C187.726 119.977 187.959 119.861 188.238 119.772C188.518 119.68 188.811 119.634 189.119 119.634C189.512 119.634 189.83 119.704 190.071 119.843C190.312 119.98 190.488 120.212 190.599 120.538C190.71 120.865 190.766 121.309 190.766 121.871V122.823C190.766 123.045 190.775 123.229 190.794 123.375C190.817 123.518 190.864 123.626 190.937 123.699C191.013 123.769 191.134 123.804 191.299 123.804H191.385L191.251 124.489H191.185C190.909 124.489 190.694 124.462 190.542 124.408C190.393 124.354 190.279 124.276 190.199 124.175C190.12 124.073 190.049 123.95 189.985 123.804C189.811 124.007 189.604 124.172 189.366 124.299C189.128 124.426 188.859 124.489 188.557 124.489ZM188.719 123.804C188.948 123.804 189.168 123.746 189.381 123.632C189.597 123.518 189.773 123.366 189.909 123.175V122.061C189.455 122.077 189.087 122.122 188.805 122.195C188.526 122.268 188.321 122.377 188.191 122.523C188.061 122.669 187.996 122.858 187.996 123.09C187.996 123.34 188.062 123.523 188.196 123.637C188.332 123.748 188.507 123.804 188.719 123.804Z" fill="#263238"/>
<path d="M272.885 56.4092H311.456" stroke="#263238" stroke-miterlimit="10"/>
<path d="M272.885 64.1233H294.099" stroke="#263238" stroke-miterlimit="10"/>
<path d="M272.885 69.9092H302.777" stroke="#263238" stroke-miterlimit="10"/>
<path d="M272.885 76.6587H297.956" stroke="#263238" stroke-miterlimit="10"/>
<path d="M272.885 84.373H310.491" stroke="#263238" stroke-miterlimit="10"/>
<path d="M272.885 91.123H309.527" stroke="#263238" stroke-miterlimit="10"/>
<path d="M272.885 97.8726H297.956" stroke="#263238" stroke-miterlimit="10"/>
<path d="M316.276 156.693H342.311" stroke="#263238" stroke-miterlimit="10"/>
<path d="M316.276 164.407H330.74" stroke="#263238" stroke-miterlimit="10"/>
<path d="M316.276 170.192H336.526" stroke="#263238" stroke-miterlimit="10"/>
<path d="M316.276 176.942H333.633" stroke="#263238" stroke-miterlimit="10"/>
<path d="M184.172 169.228H210.207" stroke="#263238" stroke-miterlimit="10"/>
<path d="M184.172 176.942H198.636" stroke="#263238" stroke-miterlimit="10"/>
<path d="M184.172 182.728H204.422" stroke="#263238" stroke-miterlimit="10"/>
<path d="M184.172 189.478H201.529" stroke="#263238" stroke-miterlimit="10"/>
<path d="M323.991 69.9092H349.062" stroke="#263238" stroke-miterlimit="10"/>
<path d="M323.991 76.6587H349.062" stroke="#263238" stroke-miterlimit="10"/>
<path d="M323.991 83.4089H341.348" stroke="#263238" stroke-miterlimit="10"/>
<path d="M249.743 169.228H274.814" stroke="#263238" stroke-miterlimit="10"/>
<path d="M249.743 175.978H274.814" stroke="#263238" stroke-miterlimit="10"/>
<path d="M249.743 182.728H267.1" stroke="#263238" stroke-miterlimit="10"/>
<path d="M202.494 124.872H258.421" stroke="#263238" stroke-miterlimit="10"/>
<path d="M202.494 137.407H258.421" stroke="#263238" stroke-miterlimit="10"/>
<path d="M202.494 149.943H258.421" stroke="#263238" stroke-miterlimit="10"/>
<path d="M295.515 156.751C305.234 156.751 313.112 148.872 313.112 139.153C313.112 129.434 305.234 121.555 295.515 121.555C285.795 121.555 277.917 129.434 277.917 139.153C277.917 148.872 285.795 156.751 295.515 156.751Z" stroke="#263238" stroke-width="0.793303" stroke-miterlimit="10"/>
<path d="M295.545 121.497V139.336H313.384" stroke="#263238" stroke-miterlimit="10"/>
<path opacity="0.6" d="M365.578 41.4053H163.796V203.421H365.578V41.4053Z" fill="white"/>
<path d="M289.53 128.845L274.641 120.167C272.268 120.344 269.882 120.234 267.535 119.839C263.678 119.174 262.848 119.135 263.311 116.098C263.774 113.06 263.128 109.01 264.275 108.586C265.423 108.162 273.542 111.585 274.95 113.909L289.973 119.28L289.53 128.845Z" fill="#B97964"/>
<path d="M333.636 114.14V131.497C333.636 131.497 329.933 132.722 325.334 134.004C320.059 135.47 313.608 137.013 310.253 136.897C303.985 136.588 282.771 125.576 282.771 125.576L286.628 118.229C286.628 118.229 309.771 126.116 312.663 125.547C315.556 124.978 333.636 114.14 333.636 114.14Z" fill="#4B9EFF"/>
<path opacity="0.2" d="M333.634 122.596V131.506C333.634 131.506 329.931 132.731 325.332 134.013C327.029 128.845 331.262 124.631 333.634 122.596Z" fill="black"/>
<path d="M337.494 175.921C337.494 175.921 327.041 231.617 324.254 254.489C320.609 284.323 305.711 327.966 305.711 327.966L311.671 329.509C311.671 329.509 332.672 292.423 336.742 259.05C353.423 224.944 354.764 182.941 354.764 182.941L337.494 175.921Z" fill="#B97964"/>
<path d="M294.66 341.465C295.623 341.022 296.659 340.761 297.717 340.694C297.717 340.694 301.381 338.534 305.016 330.164H309.095C309.784 330.174 310.454 330.394 311.014 330.796C311.575 331.197 311.999 331.761 312.229 332.411C312.296 332.594 312.335 332.785 312.345 332.98C312.302 333.949 312.199 334.916 312.036 335.873C311.431 339.131 310.633 342.351 309.645 345.515L308.95 345.332L310.214 339.247C310.628 337.174 308.459 339.17 307.446 341.263C306.434 343.355 304.891 345.448 300.388 344.416C295.133 343.172 293.011 342.41 294.66 341.465Z" fill="#3D4448"/>
<path d="M348.379 175.034C348.379 175.034 349.681 231.684 351.686 254.643C354.29 284.584 348.736 330.367 348.736 330.367L354.888 330.637C354.888 330.637 367.761 290.013 364.868 256.514C374.134 219.689 366.796 178.322 366.796 178.322L348.379 175.034Z" fill="#B97964"/>
<path d="M339.169 343.336C340.08 342.788 341.083 342.413 342.13 342.227C342.13 342.227 345.543 339.691 348.243 330.974L352.303 330.511C352.993 330.446 353.687 330.596 354.288 330.941C354.889 331.287 355.368 331.81 355.658 332.44C355.745 332.613 355.803 332.798 355.832 332.99C355.895 333.975 355.895 334.964 355.832 335.95C355.585 339.242 355.141 342.517 354.501 345.756L353.788 345.65L354.386 339.46C354.578 337.358 352.631 339.585 351.85 341.764C351.068 343.944 349.767 346.2 345.167 345.67C339.825 344.975 337.636 344.455 339.169 343.336Z" fill="#3D4448"/>
<path d="M369.149 78.6649C369.149 78.6649 372.206 78.8288 374.781 83.8526C377.355 88.8765 374.135 94.4595 373.489 97.1306C372.843 99.8016 369.632 102.164 374.935 106.204C380.239 110.245 383.421 114.536 379.12 118.904C374.819 123.272 379.544 126.618 373.334 129.858C367.125 133.098 344.243 128.247 341.35 121.98C338.457 115.712 341.948 110.948 342.131 109.078C342.314 107.207 338.457 105.288 337.493 99.1652C336.528 93.0421 341.465 91.7307 342.131 88.9343C342.796 86.1379 339.701 82.6087 342.131 76.6592C344.561 70.7097 368.822 69.4272 369.149 78.6649Z" fill="#3D4448"/>
<path d="M384.549 162.083C380.894 162.556 376.671 155.42 373.614 148.767C371.001 143.126 369.178 137.822 369.178 137.822L371.107 132.384L376.14 118.19C376.14 118.19 379.66 123.098 384.954 141.785C385.802 144.794 386.824 148.159 387.76 151.92C387.752 152.87 388.046 153.798 388.599 154.572C388.599 157.397 388.936 161.514 384.549 162.083Z" fill="#4B9EFF"/>
<path opacity="0.2" d="M373.547 148.767C370.944 143.126 369.15 137.822 369.15 137.822L371.079 132.384C372.429 136.145 374.405 142.962 373.547 148.767Z" fill="black"/>
<path opacity="0.2" d="M388.598 154.571C386.67 155.844 384.654 155.825 383.526 153.501C381.241 148.805 383.449 144.157 385.011 141.776C385.869 144.784 386.853 148.149 387.788 151.91C387.757 152.862 388.042 153.798 388.598 154.571Z" fill="black"/>
<path d="M331.071 160.232C331.071 160.232 350.356 167.136 368.735 165.853C368.735 165.853 367.067 143.097 357.424 139.047C347.781 134.997 331.071 140.782 331.071 160.232Z" fill="#4B9EFF"/>
<path opacity="0.2" d="M331.071 160.232C331.071 160.232 350.356 167.136 368.735 165.853C368.735 165.853 367.067 143.097 357.424 139.047C347.781 134.997 331.071 140.782 331.071 160.232Z" fill="black"/>
<path d="M333.8 161.852L365.62 164.6C365.93 156.712 367.064 148.878 369.005 141.226C369.767 138.179 370.721 134.775 371.946 130.841C372.602 128.739 373.325 126.483 374.135 124.091C374.742 122.25 375.398 120.292 376.121 118.229C371.8 116.849 367.385 115.782 362.911 115.037C358.189 114.198 353.413 113.696 348.62 113.533C342.43 113.533 335.313 114.179 335.313 114.179C335.313 114.179 334.301 114.42 333.665 120.986C333.096 127.11 332.527 139.433 333.8 161.852Z" fill="#4B9EFF"/>
<path d="M333.953 166.625L365.774 169.248C366.276 161.341 366.652 150.657 369.033 141.226C369.795 138.179 370.75 134.775 371.974 130.841C372.63 128.739 373.353 126.483 374.163 124.091C374.771 122.25 375.427 120.292 376.15 118.229C371.829 116.849 367.414 115.782 362.939 115.037C358.217 114.198 353.442 113.696 348.649 113.533C342.458 113.533 335.342 114.179 335.342 114.179C335.342 114.179 334.33 114.42 333.693 120.986C333.095 127.11 332.671 144.206 333.953 166.625Z" fill="#3D4448"/>
<path d="M351.252 120.533C359.101 119.569 361.454 116.174 361.454 116.174C356.478 111.478 360.615 103.34 360.615 103.34L351.175 105.105C351.396 106.421 351.519 107.752 351.541 109.087C351.618 114.815 349.024 114.873 349.024 114.873C347.366 117.968 351.252 120.533 351.252 120.533Z" fill="#B97964"/>
<path opacity="0.2" d="M351.175 105.105C351.396 106.422 351.519 107.753 351.541 109.088C357.915 109.088 360.615 103.302 360.615 103.302L351.175 105.105Z" fill="black"/>
<path d="M356.393 78.6933C348.187 78.2498 345.304 82.5022 344.243 90.9202C342.912 101.45 344.841 109.087 355.226 107.39C369.314 105.105 370.027 79.4455 356.393 78.6933Z" fill="#B97964"/>
<path d="M349.564 90.7568C348.842 91.9468 347.977 93.0445 346.99 94.0257C347.213 94.3787 347.529 94.6634 347.903 94.8488C348.277 95.0342 348.695 95.1131 349.111 95.0768L349.564 90.7568Z" fill="#A24E3F"/>
<path d="M354.628 90.3613C354.628 91.0363 354.898 91.6052 355.351 91.6438C355.804 91.6824 356.2 91.1617 356.258 90.4867C356.315 89.8117 355.988 89.2428 355.534 89.2042C355.081 89.1656 354.686 89.6767 354.628 90.3613Z" fill="#3D4448"/>
<path d="M355.728 89.2524L354.301 88.5581C354.301 88.5581 354.938 89.8502 355.728 89.2524Z" fill="#3D4448"/>
<path d="M346.267 89.561C346.219 90.236 346.537 90.8145 346.99 90.8435C347.443 90.8724 347.839 90.3613 347.897 89.6863C347.954 89.0114 347.627 88.4424 347.183 88.4039C346.739 88.3653 346.325 88.886 346.267 89.561Z" fill="#3D4448"/>
<path d="M347.367 88.452L345.94 87.7673C345.94 87.7673 346.576 89.0594 347.367 88.452Z" fill="#3D4448"/>
<path d="M355.023 84.6918C355.676 84.6478 356.33 84.7545 356.936 85.0037C357.541 85.2528 358.081 85.6376 358.514 86.1285" fill="#3D4448"/>
<path d="M355.023 84.6918C355.676 84.6478 356.33 84.7545 356.936 85.0037C357.541 85.2528 358.081 85.6376 358.514 86.1285" stroke="#2E353A" stroke-width="0.72468" stroke-linecap="round" stroke-linejoin="round"/>
<path d="M349.064 84.0256C348.511 83.8542 347.926 83.8094 347.354 83.8945C346.781 83.9796 346.235 84.1925 345.756 84.5174" fill="#3D4448"/>
<path d="M349.064 84.0256C348.511 83.8542 347.926 83.8094 347.354 83.8945C346.781 83.9796 346.235 84.1925 345.756 84.5174" stroke="#2E353A" stroke-width="0.72468" stroke-linecap="round" stroke-linejoin="round"/>
<path d="M350.127 98.355C350.464 99.2983 350.731 100.265 350.927 101.248C351.107 101.257 351.287 101.257 351.467 101.248C353.868 101.142 354.938 100.284 355.411 99.3964C355.629 98.9498 355.735 98.4566 355.719 97.9596C355.727 97.6794 355.691 97.3996 355.613 97.1304C354.179 97.8634 352.604 98.281 350.994 98.355C350.445 98.355 350.127 98.355 350.127 98.355Z" fill="#3D4448"/>
<path d="M350.991 98.3552L351.252 99.2038C353.518 99.0977 355.109 98.712 355.764 97.9985C355.772 97.7182 355.736 97.4385 355.658 97.1692C354.206 97.8955 352.614 98.3001 350.991 98.3552Z" fill="white"/>
<path d="M351.463 101.248C353.864 101.142 354.934 100.284 355.407 99.3967C354.495 99.4539 353.6 99.6726 352.765 100.043C352.215 100.298 351.76 100.72 351.463 101.248Z" fill="#DE5753"/>
<path d="M364.608 93.0227C364.608 93.0227 361.137 86.0703 362.005 80.8922C362.005 80.8922 346.104 73.3613 344.397 89.8213C344.397 89.8213 343.607 75.0777 357.733 75.5213C371.86 75.9648 370.674 96.6098 363.046 102.357C363.046 102.357 366.749 97.3908 364.608 93.0227Z" fill="#3D4448"/>
<path d="M363.172 94.6812C363.236 94.2124 363.392 93.7608 363.631 93.3523C363.87 92.9439 364.187 92.5865 364.564 92.3008C364.941 92.0151 365.371 91.8065 365.829 91.6872C366.287 91.5678 366.763 91.5399 367.232 91.6051C369.758 92.0198 370.684 97.304 364.339 98.22C363.365 98.355 362.903 97.3907 363.172 94.6812Z" fill="#B97964"/>
<path d="M368.736 117.043C368.736 117.043 359.518 124.516 350.994 124.39C342.469 124.265 339.422 114.632 339.422 114.632C339.422 114.632 352.662 110.688 368.736 117.043Z" fill="#B97964"/>
<path d="M367.943 115.635C367.943 115.635 352.823 142.711 368.734 165.854C368.734 165.854 370.894 137.302 376.13 118.19L367.943 115.635Z" fill="#4B9EFF"/>
<path d="M340.202 113.494C340.202 113.494 340.067 132.654 337.309 139.77C334.551 146.886 331.051 160.232 331.051 160.232C331.051 160.232 328.389 128.315 333.616 114.14L340.202 113.494Z" fill="#4B9EFF"/>
<path d="M362.003 80.8919C362.003 80.8919 355.89 78.7802 350.509 80.8919C345.129 83.0037 346.594 88.606 343.865 89.6282" fill="#3D4448"/>
<path d="M362.003 80.8919C362.003 80.8919 355.89 78.7802 350.509 80.8919C345.129 83.0037 346.594 88.606 343.865 89.6282" stroke="#2E353A" stroke-width="0.5" stroke-linecap="round" stroke-linejoin="round"/>
<path d="M410.535 110.042L408.009 108.595L398.723 111.131L386.188 107.882L383.295 117.399C383.295 117.399 382.697 128.006 383.295 128.131C383.893 128.257 397.643 128.97 397.643 128.97L404.634 124.515L410.535 110.042Z" fill="#A6A6A6"/>
<path d="M382.812 108.595L377.268 130.552L394.384 132.471L406.196 129.211L412.222 108.595L398.723 112.096L382.812 108.595Z" fill="#4B9EFF"/>
<path opacity="0.4" d="M398.723 112.096L394.384 132.471L377.268 130.552L382.812 108.595L398.723 112.096Z" fill="white"/>
<path opacity="0.2" d="M398.724 112.096L394.384 132.471L406.197 129.211L412.223 108.595L398.724 112.096Z" fill="white"/>
<path d="M383.698 152.354L391.654 137.08C391.365 134.717 391.365 132.327 391.654 129.964C392.136 126.106 392.136 125.248 395.183 125.566C398.23 125.885 402.26 125.055 402.743 126.184C403.225 127.312 400.168 135.576 397.921 137.089L393.245 152.354H383.698Z" fill="#B97964"/>
<path d="M381.126 160.743C386.189 165.054 391.974 161.351 395.185 148.979L385.224 147.697L381.126 160.743Z" fill="#4B9EFF"/>
<path d="M385.733 144.977L383.698 148.564L396.311 150.261V146.568L385.733 144.977Z" fill="#3D4448"/>
<path d="M282.259 126.463L285.75 128.662L288.035 116.145L284.342 115.972L282.259 126.463Z" fill="#3D4448"/>
<path d="M333.955 166.625L313.898 284.458C313.898 284.458 362.439 290.244 378.889 286.869C378.889 286.869 382.93 202.515 365.756 169.229L333.955 166.625Z" fill="#4B9EFF"/>
<path opacity="0.4" d="M333.955 166.625L313.898 284.458C313.898 284.458 362.439 290.244 378.889 286.869C378.889 286.869 382.93 202.515 365.756 169.229L333.955 166.625Z" fill="white"/>
<path d="M268.827 114.825L263.832 109.666C260.852 106.551 256.803 102.472 252.782 98.3744L246.832 92.3959L241.635 87.1792L237.961 83.4957C237.517 83.0522 237.161 82.7051 236.929 82.464C236.828 82.4087 236.717 82.3751 236.602 82.3651C236.488 82.3552 236.373 82.3691 236.264 82.4061L237.623 81.0369C237.586 81.1457 237.572 81.2611 237.582 81.3756C237.592 81.4902 237.626 81.6014 237.681 81.7022L238.723 82.734L242.425 86.3885L247.652 91.5667L253.669 97.4872C257.786 101.489 261.884 105.52 265.008 108.489L270.196 113.455L268.827 114.825Z" fill="#3D4448"/>
<path d="M305.751 327.966C305.751 327.966 300.66 338.631 297.719 340.694C297.719 340.694 301.653 343.037 305.751 337.801C311.054 331.052 312.347 332.98 312.347 332.98C312.241 331.815 312.028 330.663 311.71 329.538C310.91 327.33 305.751 327.966 305.751 327.966Z" fill="#B97964"/>
<path d="M349.362 327.85C349.362 327.85 347.915 331.804 345.987 336.143C345.103 338.391 343.794 340.447 342.13 342.198C342.13 342.198 345.485 343.288 347.289 341.186C349.092 339.084 352.187 331.543 355.658 332.373C355.474 331.755 355.215 331.162 354.887 330.608C354.366 329.779 349.362 327.85 349.362 327.85Z" fill="#B97964"/>
<path d="M187.567 346.171L188.357 226.361H180.518L181.299 346.171H187.567Z" fill="#4B9EFF"/>
<path opacity="0.5" d="M181.299 346.171H187.576L188.203 250.449L188.357 226.602H180.518L180.672 250.449L181.299 346.171Z" fill="white"/>
<path opacity="0.2" d="M188.357 226.602L188.203 250.709H180.672L180.518 226.602H188.357Z" fill="black"/>
<path d="M248.462 346.171L241.422 226.361H233.583L242.194 346.171H248.462Z" fill="#4B9EFF"/>
<path opacity="0.5" d="M242.184 346.171H248.462L241.847 233.709L241.422 226.602H233.583L234.104 233.709L242.184 346.171Z" fill="white"/>
<path opacity="0.2" d="M241.847 233.352H234.104L233.583 226.602H241.422L241.847 233.352Z" fill="black"/>
<path d="M126.685 346.171L135.286 226.361H127.447L120.408 346.171H126.685Z" fill="#4B9EFF"/>
<path opacity="0.3" d="M126.685 346.171L134.765 233.709L135.286 226.602H127.447L127.022 233.709L120.408 346.171H126.685Z" fill="white"/>
<path opacity="0.2" d="M127.446 226.602H135.285L134.765 233.352H127.022L127.446 226.602Z" fill="black"/>
<path d="M121.236 222.668H247.632V227.981C247.632 228.254 247.578 228.525 247.473 228.778C247.369 229.031 247.215 229.26 247.022 229.454C246.828 229.647 246.599 229.8 246.346 229.905C246.093 230.01 245.823 230.064 245.549 230.064H123.319C123.045 230.064 122.775 230.01 122.522 229.905C122.269 229.8 122.04 229.647 121.846 229.454C121.653 229.26 121.499 229.031 121.395 228.778C121.29 228.525 121.236 228.254 121.236 227.981V222.668Z" fill="#4B9EFF"/>
<path opacity="0.4" d="M121.236 222.668H247.632V227.981C247.632 228.254 247.578 228.525 247.473 228.778C247.369 229.031 247.215 229.26 247.022 229.454C246.828 229.647 246.599 229.8 246.346 229.905C246.093 230.01 245.823 230.064 245.549 230.064H123.319C123.045 230.064 122.775 230.01 122.522 229.905C122.269 229.8 122.04 229.647 121.846 229.454C121.653 229.26 121.499 229.031 121.395 228.778C121.29 228.525 121.236 228.254 121.236 227.981V222.668Z" fill="white"/>
<path opacity="0.2" d="M247.632 222.668H121.236V226.37H247.632V222.668Z" fill="black"/>
<path d="M251.296 223.632H117.572C117.018 223.629 116.489 223.408 116.098 223.016C115.708 222.623 115.489 222.093 115.489 221.539C115.489 220.987 115.708 220.457 116.099 220.067C116.49 219.676 117.019 219.457 117.572 219.457H251.296C251.848 219.457 252.378 219.676 252.769 220.067C253.159 220.457 253.379 220.987 253.379 221.539C253.379 222.093 253.16 222.623 252.769 223.016C252.379 223.408 251.849 223.629 251.296 223.632Z" fill="#4B9EFF"/>
<path opacity="0.4" d="M251.296 223.632H117.572C117.018 223.629 116.489 223.408 116.098 223.016C115.708 222.623 115.489 222.093 115.489 221.539C115.489 220.987 115.708 220.457 116.099 220.067C116.49 219.676 117.019 219.457 117.572 219.457H251.296C251.848 219.457 252.378 219.676 252.769 220.067C253.159 220.457 253.379 220.987 253.379 221.539C253.379 222.093 253.16 222.623 252.769 223.016C252.379 223.408 251.849 223.629 251.296 223.632Z" fill="white"/>
<path d="M177.184 222.668V226.766C177.184 227.199 177.269 227.628 177.435 228.028C177.6 228.428 177.843 228.792 178.15 229.098C178.456 229.404 178.819 229.647 179.22 229.813C179.62 229.978 180.048 230.064 180.482 230.064H246.505C247.058 230.064 247.589 229.844 247.981 229.454C248.373 229.064 248.595 228.534 248.597 227.981V222.668H177.184Z" fill="#4B9EFF"/>
<path opacity="0.6" d="M177.184 222.668V226.766C177.184 227.199 177.269 227.628 177.435 228.028C177.6 228.428 177.843 228.792 178.15 229.098C178.456 229.404 178.819 229.647 179.22 229.813C179.62 229.978 180.048 230.064 180.482 230.064H246.505C247.058 230.064 247.589 229.844 247.981 229.454C248.373 229.064 248.595 228.534 248.597 227.981V222.668H177.184Z" fill="white"/>
<path opacity="0.2" d="M248.597 222.668H177.184V226.37H248.597V222.668Z" fill="black"/>
<path d="M252.134 219.457H175.408C174.855 219.457 174.324 219.676 173.932 220.066C173.539 220.457 173.318 220.986 173.315 221.54C173.315 222.095 173.536 222.627 173.928 223.019C174.321 223.412 174.853 223.632 175.408 223.632H252.25C252.542 223.633 252.832 223.571 253.099 223.452C253.366 223.334 253.605 223.16 253.801 222.942C253.996 222.725 254.144 222.469 254.234 222.191C254.324 221.912 254.354 221.618 254.323 221.328C254.25 220.802 253.987 220.322 253.584 219.977C253.181 219.632 252.665 219.447 252.134 219.457Z" fill="#4B9EFF"/>
<path opacity="0.6" d="M252.134 219.457H175.408C174.855 219.457 174.324 219.676 173.932 220.066C173.539 220.457 173.318 220.986 173.315 221.54C173.315 222.095 173.536 222.627 173.928 223.019C174.321 223.412 174.853 223.632 175.408 223.632H252.25C252.542 223.633 252.832 223.571 253.099 223.452C253.366 223.334 253.605 223.16 253.801 222.942C253.996 222.725 254.144 222.469 254.234 222.191C254.324 221.912 254.354 221.618 254.323 221.328C254.25 220.802 253.987 220.322 253.584 219.977C253.181 219.632 252.665 219.447 252.134 219.457Z" fill="white"/>
<path d="M192.428 202.158L183.99 217.74" stroke="#2E353A" stroke-width="2" stroke-miterlimit="10"/>
<path d="M112.944 185.139C112.944 185.139 120.562 171.571 121.815 168.92C123.069 166.268 126.444 147.581 126.444 147.581C126.134 146.685 125.93 145.756 125.836 144.813C125.836 143.849 126.444 139.384 126.444 139.384C126.444 139.384 126.444 139.028 128.855 138.304C131.265 137.581 133.917 136.617 134.158 137.697C134.399 138.777 133.792 146.259 133.068 146.983C132.506 147.586 131.99 148.23 131.526 148.911C131.526 148.911 129.491 168.833 128.565 171.764C127.64 174.696 120.051 190.384 120.051 190.384L112.944 185.139Z" fill="#E4897B"/>
<path d="M148.496 201.956C148.496 201.956 167.492 210.21 170.24 211.174C172.989 212.138 181.243 212.331 181.243 212.331C182.111 211.95 183.02 211.668 183.952 211.492C184.917 211.406 189.4 211.627 189.4 211.627C189.4 211.627 189.767 211.627 190.692 213.942C191.618 216.256 192.804 218.84 191.744 219.168C190.683 219.496 183.19 219.544 182.409 218.888L181.628 218.223C181.628 218.223 171.021 220.749 168.032 220.084C165.043 219.419 143.926 213.334 143.926 213.334L148.496 201.956Z" fill="#E4897B"/>
<path d="M123.108 187.482C122.426 190.868 121 194.059 118.933 196.826C114.864 202.611 109.126 206.372 107.574 200.422C105.211 191.435 115.23 180.173 115.23 180.173L123.108 187.482Z" fill="#4B9EFF"/>
<path opacity="0.2" d="M123.108 187.482C122.426 190.867 121 194.059 118.933 196.825C118.474 196.374 118.12 195.828 117.897 195.224C117.674 194.621 117.586 193.976 117.641 193.335C118.2 189.314 123.108 187.482 123.108 187.482Z" fill="black"/>
<path d="M143.291 180.741C142.748 182.72 141.642 184.499 140.109 185.862C137.839 187.896 134.912 189.046 131.864 189.102C128.85 189.174 125.923 188.087 123.687 186.064C119.261 182.072 119.396 177.482 118.866 169.672C118.336 161.861 126.821 155.921 135.413 159.065C144.004 162.208 145.219 173.731 143.291 180.741Z" fill="#E4897B"/>
<path d="M132.732 154.07C132.732 154.07 138.739 151.872 142.953 155.372C147.167 158.872 146.935 167.3 142.953 171.282C142.953 171.282 144.042 169.836 140.909 166.336C137.775 162.835 132.732 154.07 132.732 154.07Z" fill="#3D4448"/>
<path opacity="0.2" d="M140.109 185.862C137.839 187.896 134.913 189.046 131.865 189.102C132.43 187.796 133.348 186.674 134.517 185.862C136.329 186.788 138.576 186.354 140.109 185.862Z" fill="black"/>
<path d="M141.65 313.627L140.627 320.02L139.692 325.922H131.139L131.882 318.371L132.586 311.139L141.65 313.627Z" fill="#E4897B"/>
<path d="M139.209 322.575L130.531 322.026C130.459 322.018 130.385 322.024 130.316 322.045C130.246 322.065 130.181 322.099 130.124 322.145C130.068 322.191 130.021 322.247 129.987 322.311C129.952 322.375 129.931 322.445 129.923 322.518L129.065 329.364C129.044 329.724 129.166 330.078 129.404 330.349C129.642 330.62 129.978 330.785 130.338 330.81C133.366 330.955 134.822 330.868 138.64 331.08C140.983 331.215 145.602 331.717 148.842 331.398C152.082 331.08 151.677 327.898 150.279 327.744C146.972 327.368 142.565 324.938 140.511 323.087C140.145 322.778 139.687 322.599 139.209 322.575Z" fill="#3D4448"/>
<path d="M141.871 324.06C141.174 323.999 140.485 323.863 139.817 323.655C139.784 323.646 139.755 323.627 139.733 323.602C139.71 323.576 139.696 323.544 139.692 323.51C139.688 323.476 139.693 323.441 139.706 323.409C139.72 323.377 139.741 323.349 139.769 323.327C140.029 323.173 142.314 321.813 143.24 322.238C143.344 322.289 143.433 322.365 143.501 322.459C143.568 322.554 143.611 322.663 143.626 322.778C143.672 322.949 143.671 323.129 143.621 323.299C143.572 323.469 143.477 323.622 143.346 323.742C142.911 324.028 142.385 324.141 141.871 324.06ZM143.086 322.604C142.594 322.373 141.273 322.942 140.338 323.453C141.697 323.809 142.719 323.829 143.105 323.501C143.185 323.418 143.243 323.316 143.274 323.205C143.304 323.094 143.306 322.977 143.279 322.864C143.271 322.808 143.249 322.755 143.216 322.71C143.182 322.664 143.137 322.628 143.086 322.604Z" fill="#4B9EFF"/>
<path d="M139.818 323.655C139.793 323.665 139.766 323.665 139.741 323.655C139.695 323.62 139.664 323.568 139.654 323.511C139.654 323.443 139.654 321.177 140.445 320.473C140.553 320.385 140.678 320.321 140.813 320.286C140.948 320.252 141.089 320.246 141.226 320.271C141.38 320.284 141.525 320.348 141.638 320.453C141.752 320.557 141.827 320.697 141.853 320.849C141.968 321.708 140.715 323.25 139.924 323.655C139.908 323.664 139.889 323.668 139.871 323.668C139.853 323.668 139.834 323.664 139.818 323.655ZM141.071 320.647C140.999 320.642 140.927 320.653 140.859 320.677C140.79 320.702 140.728 320.741 140.676 320.792C140.208 321.505 139.978 322.349 140.02 323.202C140.769 322.655 141.29 321.852 141.486 320.946C141.486 320.84 141.419 320.705 141.168 320.657L141.071 320.647Z" fill="#4B9EFF"/>
<path opacity="0.2" d="M141.651 313.627L140.629 320.02L131.883 318.371L132.587 311.139L141.651 313.627Z" fill="black"/>
<path d="M152.036 265.057C148.073 259.831 137.823 257.179 129.578 255.858L126.801 276.541C131.883 277.592 133.994 280.398 134.274 281.565C135.614 287.1 129.212 315.961 129.212 315.961L142.528 319.172C142.528 319.172 159.104 274.381 152.036 265.057Z" fill="#3D4448"/>
<path opacity="0.2" d="M152.036 265.057C148.073 259.831 137.823 257.179 129.578 255.858L126.801 276.541C131.883 277.592 133.994 280.398 134.274 281.565C135.614 287.1 129.212 315.961 129.212 315.961L142.528 319.172C142.528 319.172 159.104 274.381 152.036 265.057Z" fill="black"/>
<path d="M165.757 313.627L164.735 320.02L163.8 325.922H155.247L155.989 318.371L156.693 311.139L165.757 313.627Z" fill="#E4897B"/>
<path d="M163.319 322.575L154.64 322.026C154.568 322.018 154.495 322.024 154.425 322.045C154.355 322.065 154.29 322.099 154.234 322.145C154.177 322.191 154.131 322.247 154.096 322.311C154.062 322.375 154.04 322.445 154.033 322.518L153.175 329.364C153.153 329.724 153.275 330.078 153.514 330.349C153.752 330.62 154.088 330.785 154.447 330.81C157.475 330.955 158.931 330.868 162.75 331.08C165.093 331.215 169.712 331.717 172.952 331.398C176.192 331.08 175.787 327.898 174.388 327.744C171.081 327.368 166.674 324.938 164.62 323.087C164.254 322.778 163.797 322.599 163.319 322.575Z" fill="#3D4448"/>
<path d="M165.978 324.06C165.281 323.999 164.593 323.863 163.924 323.655C163.892 323.646 163.862 323.627 163.84 323.602C163.818 323.576 163.803 323.544 163.799 323.51C163.795 323.476 163.8 323.441 163.814 323.409C163.827 323.377 163.849 323.349 163.876 323.327C164.137 323.173 166.422 321.813 167.348 322.238C167.451 322.289 167.541 322.365 167.608 322.459C167.675 322.554 167.718 322.663 167.733 322.778C167.78 322.949 167.778 323.129 167.729 323.299C167.68 323.469 167.584 323.622 167.454 323.742C167.019 324.028 166.493 324.141 165.978 324.06ZM167.193 322.604C166.702 322.373 165.38 322.942 164.445 323.453C165.805 323.809 166.827 323.829 167.213 323.501C167.293 323.418 167.351 323.316 167.381 323.205C167.411 323.094 167.413 322.977 167.386 322.864C167.378 322.808 167.357 322.755 167.323 322.71C167.289 322.664 167.245 322.628 167.193 322.604Z" fill="#4B9EFF"/>
<path d="M163.925 323.655C163.901 323.665 163.873 323.665 163.848 323.655C163.802 323.62 163.771 323.568 163.761 323.511C163.761 323.443 163.761 321.177 164.552 320.473C164.66 320.385 164.786 320.321 164.921 320.286C165.055 320.252 165.196 320.246 165.333 320.271C165.487 320.284 165.632 320.348 165.746 320.453C165.859 320.557 165.935 320.697 165.96 320.849C166.076 321.708 164.822 323.25 164.031 323.655C164.015 323.664 163.997 323.668 163.978 323.668C163.96 323.668 163.942 323.664 163.925 323.655ZM165.179 320.647C165.107 320.642 165.034 320.653 164.966 320.677C164.898 320.702 164.836 320.741 164.784 320.792C164.315 321.505 164.086 322.349 164.128 323.202C164.876 322.655 165.397 321.852 165.594 320.946C165.594 320.84 165.526 320.705 165.275 320.657L165.179 320.647Z" fill="#4B9EFF"/>
<path opacity="0.2" d="M165.758 313.627L164.736 320.02L155.99 318.371L156.694 311.139L165.758 313.627Z" fill="black"/>
<path d="M123.869 184.782C123.869 189.372 123.329 193.73 120.504 195.774C124.411 199.11 128.775 201.87 133.463 203.971C138.477 200.412 136.163 197.471 136.163 197.471C131.776 195.07 133.145 189.449 134.514 185.9C134.514 185.9 133.434 184.155 127.282 184.136C124.553 184.087 123.869 184.782 123.869 184.782Z" fill="#E4897B"/>
<path d="M100.197 250.892C100.197 250.892 91.229 276.252 116.647 276.252C142.065 276.252 144.119 266.34 141.969 254.672L100.197 250.892Z" fill="#3D4448"/>
<path d="M141.969 254.566C141.969 254.566 169.065 255.704 176.142 265.028C183.22 274.353 166.635 319.172 166.635 319.172L153.318 315.961C153.318 315.961 160.637 285.403 157.879 281.45C155.121 277.496 140.137 277.255 119.887 276.194C99.6375 275.134 141.969 254.566 141.969 254.566Z" fill="#3D4448"/>
<path d="M118.006 195.023L120.532 189.092C120.532 189.092 134.948 189.613 139.326 196.18C143.704 202.746 118.006 195.023 118.006 195.023Z" fill="#4B9EFF"/>
<path d="M147.406 204.048C147.84 211.463 147.406 226.699 141.968 254.672L100.196 250.892C100.466 244.981 109.308 224.722 107.428 198.051C107.358 197.106 107.476 196.156 107.774 195.257C108.072 194.357 108.544 193.526 109.164 192.809C109.784 192.092 110.539 191.505 111.386 191.081C112.233 190.657 113.156 190.404 114.101 190.336H114.342C116.396 190.259 128.921 193.962 134.803 194.849C137.069 195.264 139.268 195.813 141.139 196.344C142.856 196.815 144.383 197.81 145.507 199.192C146.631 200.573 147.295 202.271 147.406 204.048Z" fill="#4B9EFF"/>
<path opacity="0.2" d="M147.406 204.048C147.84 211.463 147.406 226.699 141.968 254.672L100.196 250.892C100.466 244.981 109.308 224.722 107.428 198.051C107.358 197.106 107.476 196.156 107.774 195.257C108.072 194.357 108.544 193.526 109.164 192.809C109.784 192.092 110.539 191.505 111.386 191.081C112.233 190.657 113.156 190.404 114.101 190.336H114.342C116.396 190.259 128.921 193.962 134.803 194.849C137.069 195.264 139.268 195.813 141.139 196.344C142.856 196.815 144.383 197.81 145.507 199.192C146.631 200.573 147.295 202.271 147.406 204.048Z" fill="black"/>
<path d="M141.139 196.343C136.549 195.379 136.038 208.763 139.374 212.62C142.711 216.477 160.501 219.37 160.501 219.37L163.799 207.317C163.799 207.317 149.171 198.079 141.139 196.343Z" fill="#4B9EFF"/>
<path d="M122.067 184.309C122.067 184.309 116.194 182.699 113.465 170.096C110.736 157.493 122.742 151.872 136.347 154.6C149.953 157.329 143.3 176.779 131.459 184.309C128.419 185.375 125.107 185.375 122.067 184.309Z" fill="#3D4448"/>
<path d="M136.924 174.078C137.251 175.641 138.161 177.021 139.47 177.935C141.138 179.035 142.43 177.357 142.363 175.197C142.286 173.268 141.331 170.327 139.47 170.115C137.609 169.903 136.462 172.034 136.924 174.078Z" fill="#E4897B"/>
<path d="M120.734 346.171H126.761L127.937 295.615L128.285 280.601H119.22L119.568 295.615L120.734 346.171Z" fill="#4B9EFF"/>
<path opacity="0.4" d="M120.734 346.171H126.761L127.937 295.615L128.285 280.601H119.22L119.568 295.615L120.734 346.171Z" fill="white"/>
<path opacity="0.2" d="M128.285 280.601L127.937 296.03H119.568L119.22 280.601H128.285Z" fill="black"/>
<path d="M155.601 346.171L151.793 281.662H143.915L149.247 346.171H155.601Z" fill="#4B9EFF"/>
<path opacity="0.5" d="M149.237 346.172H155.601L152.226 288.991L151.793 281.566H143.915L144.522 288.991L149.237 346.172Z" fill="white"/>
<path opacity="0.2" d="M143.915 281.566L144.522 289.28H152.226L151.793 281.566H143.915Z" fill="black"/>
<path d="M98.2467 346.171L103.579 281.662H95.701L91.9018 346.171H98.2467Z" fill="#4B9EFF"/>
<path opacity="0.5" d="M98.266 346.172L102.972 288.991L103.579 281.566H95.701L95.2671 288.991L91.9018 346.172H98.266Z" fill="white"/>
<path opacity="0.2" d="M103.58 281.566L102.973 289.28H95.2682L95.7022 281.566H103.58Z" fill="black"/>
<path d="M96.3099 273.206H151.196C151.829 273.206 152.456 273.33 153.041 273.573C153.626 273.815 154.157 274.17 154.605 274.618C155.053 275.065 155.408 275.597 155.65 276.182C155.892 276.767 156.017 277.394 156.017 278.027V284.459H91.4885V278.008C91.4936 276.732 92.0039 275.511 92.9075 274.611C93.8111 273.711 95.0345 273.206 96.3099 273.206Z" fill="#4B9EFF"/>
<path d="M116.801 211.173L112.024 211.827L121.488 280.917L126.265 280.263L116.801 211.173Z" fill="#4B9EFF"/>
<path d="M86.9057 211.169L82.129 211.824L91.5932 280.914L96.3699 280.26L86.9057 211.169Z" fill="#4B9EFF"/>
<g opacity="0.4">
<path d="M116.802 211.172L112.025 211.826L121.489 280.917L126.266 280.263L116.802 211.172Z" fill="white"/>
</g>
<g opacity="0.4">
<path d="M86.9041 211.169L82.1274 211.824L91.5916 280.914L96.3684 280.26L86.9041 211.169Z" fill="white"/>
</g>
<path d="M157.164 278.846H90.3304C89.26 278.846 88.3922 279.714 88.3922 280.785V282.54C88.3922 283.61 89.26 284.478 90.3304 284.478H157.164C158.234 284.478 159.102 283.61 159.102 282.54V280.785C159.102 279.714 158.234 278.846 157.164 278.846Z" fill="#4B9EFF"/>
<path opacity="0.6" d="M157.164 278.846H90.3304C89.26 278.846 88.3922 279.714 88.3922 280.785V282.54C88.3922 283.61 89.26 284.478 90.3304 284.478H157.164C158.234 284.478 159.102 283.61 159.102 282.54V280.785C159.102 279.714 158.234 278.846 157.164 278.846Z" fill="white"/>
<path d="M123.473 234.596H80.5726L77.1398 207.828H120.04L123.473 234.596Z" fill="#4B9EFF"/>
<path opacity="0.6" d="M123.473 234.596H80.5726L77.1398 207.828H120.04L123.473 234.596Z" fill="white"/>
</svg>
